# xmcd
#
# Track frame offsets: 
#        150
#        1167
#        15976
#        30571
#        42536
#        61724
#        76558
#        82298
#        95603
#        104254
#        140834
#        156114
#        178403
#        182694
#        200597
#        208111
#        239905
#        269354
#
# Disc length: 3756 seconds
#
# Revision: 0
# Processed by: cddbd v1.5.2PL0 Copyright (c) Steve Scherf et al.
# Submitted via: ExactAudioCopy v1.0b1
#
DISCID=f80eaa12
DTITLE=Schoierer Hanse - Live 2006
DYEAR=2006
DGENRE=Bluesrock
TTITLE0=Was ist ein Haberfeldtreiber?
TTITLE1=Der Haberfeldtreiber (mit neuer 4. Strophe)
TTITLE2=der Lehrer Rudi
TTITLE3=Nie ein Rock´n´Roller
TTITLE4=Von der früheren Zeit neben dem "Roten Haus" bis Heute
TTITLE5=Nullhundertneunzig
TTITLE6=Warum ein neues Geburtstagslied?
TTITLE7=Hanse´s Geburtstagslied
TTITLE8=Die erste Gitarre
TTITLE9=Traurige Lieder
TTITLE10=Amimusik
TTITLE11=Der "Searchin Blues"
TTITLE12=Bluesmusiker-Grabstein
TTITLE13=Der kleine Finkenhahn
TTITLE14=Moderation
TTITLE15=Der Morgen danach
TTITLE16=Das "Bush-Medley"
TTITLE17=Der Abschiedsbrief
EXTD=
EXTT0=
EXTT1=
EXTT2=
EXTT3=
EXTT4=
EXTT5=
EXTT6=
EXTT7=
EXTT8=
EXTT9=
EXTT10=
EXTT11=
EXTT12=
EXTT13=
EXTT14=
EXTT15=
EXTT16=
EXTT17=
PLAYORDER=
